<svg width="1440" height="192" viewBox="0 0 1440 192" fill="none" xmlns="http://www.w3.org/2000/svg">
<path d="M1440 159.562L1400 170.233C1360 180.504 1280 202.444 1200 186.189C1120 170.532 1040 116.68 960 85.0664C880 52.8549 800 42.8822 720 37.1978C640 31.9124 560 31.9124 480 53.154C400 74.7946 320 116.68 240 116.979C160 116.68 80 74.7946 40 53.154L0 31.9124V0H40C80 0 160 0 240 0C320 0 400 0 480 0C560 0 640 0 720 0C800 0 880 0 960 0C1040 0 1120 0 1200 0C1280 0 1360 0 1400 0H1440V159.562Z" fill="#00BFB2"/>
</svg>
