<svg width="1440" height="192" viewBox="0 0 1440 192" fill="none" xmlns="http://www.w3.org/2000/svg">
<path d="M0 32.4381L40 21.7674C80 11.4956 160 -10.4441 240 5.81125C320 21.4683 400 75.3204 480 106.934C560 139.145 640 149.118 720 154.802C800 160.088 880 160.088 960 138.846C1040 117.205 1120 75.3204 1200 75.0212C1280 75.3204 1360 117.205 1400 138.846L1440 160.088V192H1400C1360 192 1280 192 1200 192C1120 192 1040 192 960 192C880 192 800 192 720 192C640 192 560 192 480 192C400 192 320 192 240 192C160 192 80 192 40 192H0V32.4381Z" fill="#00BFB2"/>
</svg>
